<svg xmlns="http://www.w3.org/2000/svg"><symbol id="behance" viewBox="0 0 120 120"><circle cx="60" cy="59.7" r="49.9" fill="#7a7979" transform="rotate(-45 60.006 59.645)"/><path fill="#efebe3" d="M54.7 76.4a9 9 0 0 0 4.1-1.8 10.6 10.6 0 0 0 2.7-2.9 11.8 11.8 0 0 0 1.6-5.9 10.3 10.3 0 0 0-1.4-5.4 8.5 8.5 0 0 0-4.3-3.3 7.9 7.9 0 0 0 2.8-2.1 8.3 8.3 0 0 0 1.7-5.4 8.7 8.7 0 0 0-1.7-5.6c-1.8-2.6-5-3.9-9.5-4H32.9v36.9h16.6a28.7 28.7 0 0 0 5.2-.5zm-14.5-30h8a13.7 13.7 0 0 1 4.4.6 3.4 3.4 0 0 1 2 3.4 3.6 3.6 0 0 1-1.5 3.3 7.5 7.5 0 0 1-3.9.9h-9zm0 24.1v-9.8h9.1a9.2 9.2 0 0 1 3.7.6 3.9 3.9 0 0 1 2.3 3.9c0 2.3-.8 3.9-2.4 4.7a9.2 9.2 0 0 1-3.7.6zm29.1 4a15.1 15.1 0 0 0 9.6 3.3c4.4 0 7.9-1.3 10.3-3.9a9 9 0 0 0 2.6-5h-7.2a7.9 7.9 0 0 1-1.5 1.9 6.2 6.2 0 0 1-4 1.3 7.1 7.1 0 0 1-3.9-1.1c-1.8-1.1-2.7-3-2.8-5.7h19.8a38.8 38.8 0 0 0-.2-5.4 14.5 14.5 0 0 0-2.2-5.7 10.7 10.7 0 0 0-4.7-4 14.7 14.7 0 0 0-6.4-1.3 13.3 13.3 0 0 0-9.8 3.8c-2.5 2.5-3.7 6.1-3.7 10.9s1.4 8.6 4.1 10.9zm5.1-18.1a5.6 5.6 0 0 1 4.3-1.6 6 6 0 0 1 4.2 1.5 5.8 5.8 0 0 1 1.9 4.3H72.5a7.5 7.5 0 0 1 1.9-4.2zm-4.2-14.2h16v3.72h-16z"/></symbol><symbol id="linkedin" viewBox="0 0 120 120"><circle cx="60" cy="60" r="49.7" fill="#7a7979" transform="rotate(-80.7 59.995 59.988)"/><path fill="#efebe3" d="M36.4 49.8h10.9v35.07H36.4zm5.4-4.6a6.5 6.5 0 0 0 0-12.9 6.5 6.5 0 0 0 0 12.9zm22.8 21.3c0-4.9 2.3-7.9 6.7-7.9s5.9 2.8 5.9 7.9v18.4H88V62.7c0-9.4-5.3-13.9-12.8-13.9a12.4 12.4 0 0 0-10.6 5.8v-4.8H54.2v35.1h10.4z"/></symbol><symbol id="instagram" viewBox="0 0 120 120"><circle cx="59.9" cy="60.5" r="49.2" fill="#7a7979"/><path fill="#efebe3" d="M59.9 38.2h11.5a17.3 17.3 0 0 1 5.3 1 9.1 9.1 0 0 1 3.3 2.3 8.5 8.5 0 0 1 2.1 3.2 14.7 14.7 0 0 1 1 5.3c.1 3 .2 3.9.2 11.5s-.1 8.5-.2 11.5a14.7 14.7 0 0 1-1 5.3 9 9 0 0 1-5.4 5.4 14.7 14.7 0 0 1-5.3 1c-3 .1-3.9.2-11.5.2s-8.5-.1-11.5-.2a14.7 14.7 0 0 1-5.3-1 8.5 8.5 0 0 1-3.2-2.1 9.1 9.1 0 0 1-2.2-3.3 17.3 17.3 0 0 1-1-5.3c-.1-3-.1-3.9-.1-11.5s0-8.5.1-11.5a17.3 17.3 0 0 1 1-5.3 8.7 8.7 0 0 1 2.2-3.2 8.7 8.7 0 0 1 3.2-2.2 17.3 17.3 0 0 1 5.3-1h11.5m0-5.2c-7.7 0-8.7.1-11.7.2a22.9 22.9 0 0 0-6.9 1.3 14.5 14.5 0 0 0-8.4 8.4 22.9 22.9 0 0 0-1.3 6.9c-.1 3-.1 4-.1 11.7s0 8.7.1 11.8a22.9 22.9 0 0 0 1.3 6.9 15.5 15.5 0 0 0 3.3 5 13.6 13.6 0 0 0 5.1 3.3 20.1 20.1 0 0 0 6.9 1.3c3 .2 4 .2 11.7.2s8.7 0 11.8-.2a20.1 20.1 0 0 0 6.9-1.3 13.2 13.2 0 0 0 5-3.3 14 14 0 0 0 3.3-5 20.1 20.1 0 0 0 1.3-6.9c.2-3.1.2-4 .2-11.8s0-8.7-.2-11.7a20.1 20.1 0 0 0-1.3-6.9 13.6 13.6 0 0 0-3.3-5.1 14.5 14.5 0 0 0-5-3.3 22.9 22.9 0 0 0-6.9-1.3c-3.1-.1-4-.2-11.8-.2"/><path fill="#efebe3" d="M59.9 46.9a14.6 14.6 0 1 0 14.6 14.6 14.6 14.6 0 0 0-14.6-14.6m0 24.1a9.5 9.5 0 1 1 9.5-9.5 9.5 9.5 0 0 1-9.5 9.5m18.6-24.7a3.4 3.4 0 1 1-3.4-3.4 3.4 3.4 0 0 1 3.4 3.4"/></symbol></svg>